<?xml version="1.0" encoding="UTF-8"?>
<svg id="Layer_1" xmlns="http://www.w3.org/2000/svg" version="1.1" viewBox="0 0 73.98 91.79">
  <!-- Generator: Adobe Illustrator 29.3.1, SVG Export Plug-In . SVG Version: 2.1.0 Build 151)  -->
  <defs>
    <style>
      .st0 {
        fill: #fff;
      }
    </style>
  </defs>
  <path class="st0" d="M43,21.24c-1.62-6.27-4.28-12.45-13.21-12.45-7.41,0-9.98,5.42-9.98,10.36,0,6.56,4.18,9.88,12.07,13.97,11.4,5.89,16.34,10.26,16.34,19.29,0,9.98-8.65,17.58-20.9,17.58-5.7,0-10.64-1.62-14.54-3.14-.76-2.66-1.9-9.12-2.57-14.25l2.95-.76c1.9,6.37,6.08,14.63,15.96,14.63,6.84,0,11.02-4.75,11.02-10.93,0-7.32-3.9-10.26-12.26-14.82-9.98-5.42-15.58-9.98-15.58-18.81S19.34,5.47,31.88,5.47c5.32,0,10.55,1.43,12.54,1.81.38,3.42.76,7.22,1.52,13.4l-2.95.57Z"/>
  <path class="st0" d="M68.64,9.7c-7.56.87-8.33,1.45-8.33,9.6v35.86c0,12.79-2.04,19.48-8.53,25.3-3.2,2.91-6.4,4.46-9.01,5.62l-1.55-2.91c5.52-2.71,8.63-7.17,9.69-12.79.87-4.65.97-10.27.97-18.42V19.29c0-8.14-.87-8.82-8.82-9.6v-2.71h25.59v2.71Z"/>
  <text/>
</svg>